<svg xmlns="http://www.w3.org/2000/svg" width="900" height="680" viewBox="0 0 900 680">
  <!-- Primary contour rings - much more visible -->
  <ellipse cx="360" cy="310" rx="340" ry="245" fill="none" stroke="#1F2192" stroke-width="1.8" opacity="0.22"/>
  <ellipse cx="360" cy="310" rx="278" ry="195" fill="none" stroke="#1F2192" stroke-width="1.5" opacity="0.20"/>
  <ellipse cx="360" cy="310" rx="218" ry="152" fill="none" stroke="#1F2192" stroke-width="1.4" opacity="0.18"/>
  <ellipse cx="360" cy="310" rx="162" ry="112" fill="none" stroke="#1F2192" stroke-width="1.2" opacity="0.16"/>
  <ellipse cx="360" cy="310" rx="110" ry="76"  fill="none" stroke="#1F2192" stroke-width="1.1" opacity="0.14"/>
  <ellipse cx="360" cy="310" rx="65"  ry="44"  fill="none" stroke="#1F2192" stroke-width="1"   opacity="0.12"/>
  <!-- Secondary peak – upper right, accent purple -->
  <ellipse cx="740" cy="130" rx="210" ry="148" fill="none" stroke="#A329CC" stroke-width="1.6" opacity="0.16"/>
  <ellipse cx="740" cy="130" rx="155" ry="108" fill="none" stroke="#A329CC" stroke-width="1.4" opacity="0.14"/>
  <ellipse cx="740" cy="130" rx="102" ry="70"  fill="none" stroke="#A329CC" stroke-width="1.2" opacity="0.12"/>
  <ellipse cx="740" cy="130" rx="55"  ry="37"  fill="none" stroke="#A329CC" stroke-width="1"   opacity="0.10"/>
  <!-- Third peak – lower left, CFA green -->
  <ellipse cx="95"  cy="570" rx="175" ry="124" fill="none" stroke="#00A651" stroke-width="1.5" opacity="0.15"/>
  <ellipse cx="95"  cy="570" rx="120" ry="84"  fill="none" stroke="#00A651" stroke-width="1.2" opacity="0.13"/>
  <ellipse cx="95"  cy="570" rx="70"  ry="48"  fill="none" stroke="#00A651" stroke-width="1"   opacity="0.11"/>
  <!-- Valley / ridge flow lines -->
  <path d="M 0 175 Q 225 152 450 188 Q 675 224 900 200" fill="none" stroke="#1F2192" stroke-width="1.2" opacity="0.14"/>
  <path d="M 0 355 Q 225 332 450 368 Q 675 404 900 380" fill="none" stroke="#1F2192" stroke-width="1.2" opacity="0.13"/>
  <path d="M 0 520 Q 225 500 450 532 Q 675 564 900 545" fill="none" stroke="#1F2192" stroke-width="1"   opacity="0.11"/>
  <path d="M 120 0 Q 100 170 138 340 Q 176 510 148 680" fill="none" stroke="#1F2192" stroke-width="1"   opacity="0.13"/>
  <path d="M 480 0 Q 460 170 496 340 Q 532 510 506 680" fill="none" stroke="#1F2192" stroke-width="1"   opacity="0.12"/>
  <path d="M 800 0 Q 782 170 816 340 Q 850 510 828 680" fill="none" stroke="#A329CC" stroke-width="0.9" opacity="0.10"/>
</svg>
